<svg width="189" height="36" viewBox="0 0 189 36" fill="none" xmlns="http://www.w3.org/2000/svg">
<path d="M22.8034 23.2534L22.7334 23.5928C21.9294 27.5531 19.1867 29.7338 15.0079 29.7338C9.09612 29.7338 5.56643 25.4425 5.56643 18.2559C5.56643 14.7601 6.44035 11.8541 8.09702 9.85587C9.74096 7.87042 12.1295 6.82042 15.0079 6.82042C19.191 6.82042 21.9337 9.00102 22.7334 12.9613L22.8013 13.3007H28.6537L28.571 12.8065C27.3916 5.70466 22.3198 1.46436 15.0058 1.46436C10.5576 1.46436 6.78189 3.06587 4.08795 6.0992C1.41522 9.1092 0.000366211 13.3134 0.000366211 18.2559C0.000366211 23.1983 1.4131 27.4344 4.08795 30.4486C6.77976 33.4841 10.5555 35.0877 15.0058 35.0877C22.2985 35.0877 27.3704 30.8474 28.571 23.7477L28.6537 23.2534H22.7992H22.8034Z" fill="#0E1530"/>
<path d="M46.841 26.8258L46.752 27.1291C46.1368 29.2037 44.5247 30.2113 41.8201 30.2113C40.2823 30.2113 38.8695 29.6279 37.8429 28.5716C36.8523 27.5513 36.2901 26.181 36.2413 24.6834H52.1928L52.2332 24.3037C52.3392 23.2898 52.3604 22.5579 52.3604 21.7052C52.3604 15.1379 48.3047 10.8955 42.028 10.8955C38.5938 10.8955 35.7004 12.1194 33.6619 14.4379C31.7783 16.5782 30.741 19.5713 30.741 22.8676C30.741 26.164 31.7783 29.1782 33.6598 31.3249C35.6983 33.6519 38.5917 34.8801 42.028 34.8801C47.2313 34.8801 51.1535 31.9931 52.265 27.3476L52.3901 26.8237H46.841V26.8258ZM36.3856 20.5937C36.7504 17.4776 38.878 15.5643 42.028 15.5643C45.178 15.5643 47.1762 17.3461 47.2886 20.5937H36.3835H36.3856Z" fill="#0E1530"/>
<path d="M65.2043 11.3112C62.8858 11.3112 61.1803 12.1003 60.0073 13.7167L59.3603 11.3112H54.8931V34.4876H60.2894V23.2006C60.2894 20.7633 60.4867 19.4567 61.0233 18.3621C61.6958 16.803 62.9855 16.1667 65.4736 16.1667H68.4518V11.3091H65.2022L65.2043 11.3112Z" fill="#0E1530"/>
<path d="M84.6557 16.001V11.311H79.8173V4.37256H74.3997V10.3013C74.3997 10.7617 74.2385 11.311 73.4748 11.311H70.2463V16.001H74.3997V30.1983C74.3997 33.1638 75.806 34.4853 78.9582 34.4853H84.6579V29.5662H80.7867C80.0273 29.5662 79.8194 29.3413 79.8194 28.5162V16.001H84.6579H84.6557Z" fill="#0E1530"/>
<path d="M93.4038 11.311H88.0265V34.4874H93.4038V11.311Z" fill="#0E1530"/>
<path d="M93.4027 4.37256H88.0286V9.58757H93.4027V4.37256Z" fill="#0E1530"/>
<path d="M112.111 11.311L106.891 28.4186L101.711 11.311H95.9302L103.497 34.4874H110.323L117.889 11.311H112.111Z" fill="#0E1530"/>
<path d="M140.459 29.857C139.481 29.857 139.118 29.4943 139.118 28.5164V19.357C139.118 15.7234 138.093 10.8955 129.244 10.8955C123.009 10.8955 119.639 13.3731 118.937 18.4682L118.871 18.9498H124.363L124.426 18.6019C124.866 16.207 126.234 15.2737 129.305 15.2737C132.532 15.2737 133.908 16.3343 133.908 18.8161C133.908 20.4728 132.986 20.5937 131.467 20.5937H127.231C121.646 20.5937 118.311 23.1985 118.311 27.5598C118.311 31.921 121.815 34.8801 127.458 34.8801C131.166 34.8801 133.497 33.6625 134.861 32.5319C135.554 33.8449 136.895 34.4855 138.942 34.4855H141.816V29.857H140.456H140.459ZM128.1 30.6037C127.069 30.6037 123.705 30.381 123.705 27.5173C123.705 25.6358 125.135 24.6813 127.954 24.6813H133.76V25.8352C133.76 28.8219 131.643 30.6037 128.098 30.6037H128.1Z" fill="#0E1530"/>
<path d="M150.032 4.37256H144.654V34.4853H150.032V4.37256Z" fill="#0E1530"/>
<path d="M168.857 26.8258L168.768 27.1291C168.153 29.2037 166.541 30.2113 163.836 30.2113C162.299 30.2113 160.886 29.6279 159.859 28.5716C158.869 27.5513 158.306 26.181 158.258 24.6834H174.209L174.249 24.3037C174.355 23.2898 174.377 22.5579 174.377 21.7052C174.377 15.1379 170.321 10.8955 164.044 10.8955C160.61 10.8955 157.717 12.1194 155.678 14.4379C153.795 16.5782 152.757 19.5713 152.757 22.8676C152.757 26.164 153.795 29.1782 155.676 31.3249C157.715 33.6519 160.608 34.8801 164.044 34.8801C169.248 34.8801 173.17 31.9931 174.281 27.3476L174.406 26.8237H168.857V26.8258ZM158.402 20.5937C158.767 17.4776 160.894 15.5643 164.044 15.5643C167.194 15.5643 169.192 17.3461 169.305 20.5937H158.4H158.402Z" fill="#0E1530"/>
<path d="M181.727 15.8556L186.002 13.7192C187.606 12.9174 188.62 11.2782 188.62 9.48488V1.4466C188.62 1.30069 188.489 1.18903 188.344 1.21285L187.383 1.3729C185.879 1.62378 184.335 1.38407 182.978 0.689525L181.733 0.0530401C181.596 -0.01768 181.434 -0.01768 181.297 0.0530401L180.053 0.689525C178.695 1.38407 177.151 1.62378 175.647 1.3729L174.686 1.21285C174.542 1.18903 174.41 1.29995 174.41 1.4466V9.48488C174.41 11.2782 175.424 12.9174 177.029 13.7192L181.303 15.8556C181.436 15.9226 181.594 15.9226 181.727 15.8556Z" fill="#0086FF"/>
<path d="M181.515 15.9053C181.587 15.9053 181.66 15.889 181.726 15.8555L186.001 13.719C187.605 12.9172 188.619 11.278 188.619 9.48469V1.44641C188.619 1.30051 188.488 1.18884 188.343 1.21266L187.382 1.37272C185.879 1.62359 184.334 1.38388 182.977 0.689336L181.732 0.0528511C181.664 0.0171188 181.589 0 181.514 0V15.9053H181.515Z" fill="#0072D9"/>
</svg>
