<svg width="216" height="216" viewBox="0 0 216 216" fill="none" xmlns="http://www.w3.org/2000/svg">
<g id="QR Code" clip-path="url(#clip0_616_218)">
<path id="Vector" d="M0.0143206 141.272H6.42034V135.077H0.0200048V121.708H13.318V128.176H26.3688V134.667H32.5645V102.433H26.4086V108.873H19.8747V115.381H0.0143206V102.086H6.44877V95.552H19.5081V89.308H6.50561V82.794H0.00863647V69.4107H6.46298V62.9023H12.9969V56.3713H32.9141V62.8284H39.1354V56.3769H45.9422V63.1212H39.5305V69.3396H65.2427V62.9308H72.0977V69.3879H78.6117V76.2174H72.1745V88.9897H78.6373V102.038H85.1769V108.557H91.3527V95.8703H84.9496V89.038H98.2505V102.049H111.276V115.387H104.81V121.921H98.3158V128.165H104.728V135.02H98.3045V141.261H104.782V147.741H111.003V141.267H117.488V135.048H111.054V121.665H117.514V108.651H124.366V128.17H130.886V134.662H137.082V121.989H130.659V89.0153H137.082V82.794H130.656V69.4476H137.451V82.4217H150.138V76.2771H143.741V69.422H150.164V62.9279H157.019V69.3425H163.214V56.664H156.789V43.3176H163.581V56.3286H183.129V63.1325H176.703V69.3737H183.12V76.1606H176.356V69.7602H170.118V76.2089H163.632V82.4501H170.089V88.9669H176.626V102.018H182.822V95.552H208.975V89.0494H215.796V95.805H209.361V102.046H215.796V121.918H209.33V128.452H202.836V134.696H215.781V148.042H209.02V141.622H202.827V154.303H209.279V167.377H215.787V174.209H209.35V180.45H215.798V193.788H209.316V200.291H202.486V187.331H189.774V193.504H196.191V200.305H182.893V193.882H170.166V200.029H176.615V206.572H183.126V213.401H170.106V219.901H150.235V200.416H143.996V219.881H137.167V206.89H124.113V193.572H130.886V199.984H143.613V193.834H137.167V187.345H111.372V193.484H117.795V219.873H104.526V213.123H110.957V206.924H104.546V200.066H110.94V193.873H91.7734V200.021H98.1993V206.828H78.7197V213.091H91.6711V219.893H71.8448V213.447H65.308V200.393H59.0924V206.805H52.2572V186.996H65.2654V180.465H71.7567V167.743H59.0668V174.152H52.2601V161.221H46.0217V167.618H32.6697V160.883H45.6182V154.687H26.4171V161.09H13.0935V154.34H26.0221V135.085H19.8747V141.517H13.3408V148.051H6.80971V167.618H0.0143206V141.258V141.272ZM163.268 102.43H157.005V108.921H137.514V121.594H150.238V115.162H163.507V121.992H150.581V128.23H176.581V135.037H163.55V141.52H156.74V135.082H150.499V141.514H143.667V135.097H137.397V141.511H130.588V135.088H124.346V141.576H117.909V154.349H124.395V160.803H137.084V154.61H130.664V147.838H137.448V154.275H143.692V147.826H163.501V154.664H157.087V160.809H176.35V147.752H189.336V141.534H182.916V121.713H189.717V128.139H195.938V121.634H208.952V115.438H202.452V108.969H189.654V115.466H176.589V121.912H169.842V115.105H176.296V102.418H170.101V108.844H163.268V102.43ZM39.5191 89.2881V95.552H45.9166V102.407H39.5049V108.623H45.928V115.449H39.5219V121.6H52.2402V88.9897H58.7059V82.7712H52.2288V76.2345H39.1382V69.7659H32.988V88.9442H39.1752V82.5325H45.9336V89.2909H39.5191V89.2881ZM104.784 161.17H98.2277V167.701H91.6966V180.763H85.1656V187.294H72.1801V193.461H91.4266V186.95H97.9833V173.888H104.492V167.445H111.341V180.396H117.491V161.138H111V154.681H104.784V161.164V161.17ZM58.7343 154.59V148.167H52.5954V160.795H71.8505V154.397H78.589V161.184H72.1887V167.326H84.8444V148.093H78.3304V141.622H72.092V148.108H65.5638V154.59H58.7343ZM182.833 167.758H163.641V186.925H182.833V167.758ZM150.542 193.532V200.075H157.056V213.066H169.751V206.873H163.266V193.828H156.729V187.357H144.048V193.53H150.539L150.542 193.532ZM97.9094 128.48H91.4067V122.015H85.2309V147.744H91.4295V134.696H97.9122V128.48H97.9094ZM26.0335 75.9247V69.6863H19.5479V63.2263H13.3749V82.4217H19.5734V75.9247H26.0306H26.0335ZM59.1152 102.404V128.134H65.2341V102.404H59.1152ZM150.172 89.3677H137.516V101.995H143.709V95.498H150.169V89.3648L150.172 89.3677ZM156.683 173.911V167.76H144.053V180.411H150.223V173.911H156.683ZM104.44 108.95H91.7734V121.605H97.9549V115.097H104.438V108.947L104.44 108.95ZM52.1634 141.224V128.563H39.5305V134.761H46.0217V141.224H52.1634ZM91.7762 148.133V160.803H97.898V148.133H91.7762ZM169.771 89.362H157.107V95.4753H169.771V89.362ZM32.9738 147.747H45.6409V141.611H32.9738V147.747ZM65.6604 128.548V134.659H71.7766V128.548H65.6604ZM124.022 134.693V128.56H117.912V134.693H124.022ZM144.016 134.665H150.147V128.563H144.016V134.665ZM196.299 135.068V141.201H202.409V135.068H196.299ZM19.8946 88.9442H26.0335V82.8309H19.8946V88.9442ZM156.681 75.8991V69.7659H150.573V75.8991H156.681ZM59.1123 89.3393V95.4753H65.2284V89.3393H59.1123ZM65.6462 69.7403V75.8764H71.7624V69.7403H65.6462ZM183.223 160.809H189.353V154.681H183.223V160.809ZM143.616 167.354V161.221H137.505V167.354H143.616ZM196.293 161.195V167.331H202.409V161.195H196.293ZM130.946 173.865H137.084V167.755H130.946V173.865ZM202.824 102.407V108.546H208.946V102.407H202.824ZM189.757 167.738V173.874H195.884V167.738H189.757ZM202.841 167.746V173.857H208.958V167.746H202.841ZM156.698 88.9613V82.8451H150.584V88.9613H156.698ZM196.293 174.266V180.405H202.412V174.266H196.293ZM26.4314 69.3481H32.5702V63.2349H26.4314V69.3481ZM156.695 95.8845H150.559V102.021H156.695V95.8845ZM72.1801 200.39V206.526H78.2963V200.39H72.1801ZM71.7709 102.023V95.8874H65.6377V102.023H71.7709ZM26.0534 95.8959H19.9202V102.004H26.0534V95.8959ZM19.5223 102.427H13.3891V108.537H19.5223V102.427Z" fill="#0E1530"/>
<path id="Vector_2" d="M98.2362 65.6554V78.6067H84.9353V58.7804H91.3925V32.6334H97.8951V26.4121H91.4692V19.5826H97.8979V6.81037H91.4663V0.0178223H124.329V6.75068H104.855V32.6334H111.31V45.6472H117.528V32.6732H130.911V39.1474H137.428V45.6387H143.644V39.2213H150.468V45.957H144.008V52.4711H130.622V39.5226H124.383V52.5165H111.372V58.7549H117.838V65.2717H124.332V72.0643H104.506V65.6583H98.2447L98.2362 65.6554ZM98.3044 39.5027V58.7037H104.483V52.2039H110.969V45.9911H104.457V39.5055H98.3044V39.5027ZM110.966 65.249V59.1329H104.852V65.249H110.966ZM91.7875 59.1101V65.2462H97.8979V59.1101H91.7875Z" fill="#0E1530"/>
<path id="Vector_3" d="M0 -0.000244141H45.7175V45.7315H0V-0.000244141ZM39.0984 39.1294V6.64167H6.63339V39.1265H39.0955L39.0984 39.1294Z" fill="#0E1530"/>
<path id="Vector_4" d="M169.839 45.7368V0.0192871H215.568V45.7368H169.839ZM208.963 6.64131H176.478V39.1034H208.963V6.64131Z" fill="#0E1530"/>
<path id="Vector_5" d="M45.7261 215.583H0.0170898V169.862H45.7261V215.583ZM6.63343 176.464V208.949H39.0984V176.464H6.63343Z" fill="#0E1530"/>
<path id="Vector_6" d="M78.6343 39.1564H85.1341V52.4857H65.3135V33.0005H59.0809V58.9969H52.2542V32.648H58.7057V19.8729H52.2571V0.0267679H59.0326V6.43848H65.2453V0.0239258H72.072V6.75395H65.6546V13.0179H72.1203V32.6168H78.6315V39.1535L78.6343 39.1564ZM72.1771 39.5031V45.6391H78.2961V39.5031H72.1771Z" fill="#0E1530"/>
<path id="Vector_7" d="M163.547 0.00699246V19.8276H157.104V26.0688H163.518V32.8812H156.763V26.461H143.993V32.8698H137.207V26.1199H143.613V19.9043H130.675V13.0549H137.121V0.00415039H143.968V12.9924H156.675V6.84501H150.274V0.00699246H163.547Z" fill="#0E1530"/>
<path id="Vector_8" d="M182.916 78.3445H189.39V71.839H202.426V65.3079H208.952V59.1093H196.27V65.5267H189.449V58.774H195.924V52.2656H215.798V65.575H209.358V71.8134H215.79V78.6173H189.739V85.1256H182.916V78.3473V78.3445Z" fill="#0E1530"/>
<path id="Vector_9" d="M202.475 209.308H189.461V202.51H202.77V208.996H209.253V215.777H202.472V209.308H202.475Z" fill="#0E1530"/>
<path id="Vector_10" d="M104.529 84.8899H117.517V78.4128H124.335V85.1542H117.875V91.6654H104.529V84.8899Z" fill="#0E1530"/>
<path id="Vector_11" d="M117.81 26.3563H111.04V13.0867H117.81V26.3563Z" fill="#0E1530"/>
<path id="Vector_12" d="M78.3898 6.75407V0.00415039H85.1312V6.75407H78.3898Z" fill="#0E1530"/>
<path id="Vector_13" d="M176.592 176.605H169.848V169.867H176.592V176.605Z" fill="#0E1530"/>
<path id="Vector_14" d="M13.0649 13.0664H32.6524V32.6653H13.0649V13.0664Z" fill="#0E1530"/>
<path id="Vector_15" d="M182.904 32.6714V13.0867H202.503V32.6714H182.904Z" fill="#0E1530"/>
<path id="Vector_16" d="M32.6696 182.918V202.5H13.0735V182.918H32.6696Z" fill="#0E1530"/>
</g>
<defs>
<clipPath id="clip0_616_218">
<rect width="215.798" height="215.798" fill="white"/>
</clipPath>
</defs>
</svg>
