<svg width="161" height="179" viewBox="0 0 161 179" fill="none" xmlns="http://www.w3.org/2000/svg">
<g clip-path="url(#clip0_492_391)">
<path d="M82.7935 176.519L129.85 152.99C147.516 144.158 158.674 126.101 158.674 106.352V17.8178C158.674 16.206 157.228 14.9804 155.639 15.2471L145.062 17.0107C128.508 19.77 111.505 17.1303 96.5639 9.48265L82.8648 2.46962C81.3588 1.69014 79.57 1.69014 78.0639 2.46962L64.3649 9.48265C49.4242 17.1303 32.4211 19.77 15.8664 17.0107L5.28977 15.2471C3.70097 14.9827 2.25473 16.2083 2.25473 17.8178V106.354C2.25473 126.104 13.4131 144.16 31.0784 152.992L78.1352 176.522C79.6022 177.255 81.3312 177.255 82.7981 176.522L82.7935 176.519Z" fill="url(#paint0_linear_492_391)"/>
<path d="M80.4621 159.049C79.5194 159.049 78.5767 158.835 77.719 158.405L77.6662 158.377C77.4224 158.235 53.0364 144.004 36.4564 133.641C31.7038 130.67 27.7559 126.511 25.0382 121.613C22.3204 116.713 20.8834 111.16 20.8834 105.557V36.6979C20.8834 35.8172 21.2329 34.9963 21.8652 34.3847C22.4998 33.7731 23.3321 33.4535 24.215 33.4834C49.4886 34.364 61.0126 29.54 63.9418 28.0385L77.6409 21.0255C79.4044 20.1103 81.5151 20.1103 83.2833 21.0255L96.98 28.0362C99.9093 29.5354 111.436 34.364 136.707 33.4811C137.587 33.4512 138.422 33.7708 139.057 34.3824C139.689 34.994 140.038 35.8149 140.038 36.6956V105.554C140.038 111.158 138.601 116.709 135.884 121.608C133.166 126.506 129.218 130.666 124.466 133.636C107.885 144 83.4994 158.23 83.2534 158.373L83.2005 158.4C82.3429 158.83 81.4002 159.044 80.4575 159.044L80.4621 159.049ZM78.5675 156.772C79.7562 157.357 81.1702 157.357 82.359 156.772C83.2994 156.223 107.186 142.275 123.495 132.082C127.983 129.277 131.713 125.347 134.279 120.721C136.845 116.092 138.201 110.85 138.201 105.559V36.6979C138.201 36.3208 138.052 35.969 137.781 35.7068C137.509 35.4447 137.151 35.3068 136.773 35.3206C128.441 35.6126 107.8 35.6425 96.1431 29.6756L82.4441 22.6626C81.2024 22.0188 79.724 22.0188 78.487 22.6626L64.7834 29.6779C53.1261 35.6471 32.4855 35.6126 24.153 35.3229C23.7759 35.3114 23.4172 35.447 23.1459 35.7091C22.8746 35.9713 22.7251 36.3231 22.7251 36.7002V105.559C22.7251 110.85 24.0817 116.095 26.6477 120.721C29.2136 125.347 32.9431 129.277 37.4312 132.082C53.74 142.275 77.6248 156.223 78.5675 156.772Z" fill="url(#paint1_linear_492_391)"/>
<path d="M38.9237 113.125V111.021L43.2417 109.692C46.0468 108.807 47.4862 106.963 47.5598 104.155V51.4493L38.3696 52.6679V50.1202C42.5037 49.3821 46.5435 48.2923 50.4936 46.8529C54.4415 45.4135 58.1893 43.6614 61.7324 41.5942L63.0614 42.7025L62.6177 58.5359V89.9819C62.6177 91.9018 62.6361 94.1345 62.6728 96.6799C62.7096 99.2276 62.728 101.681 62.728 104.042C62.728 106.921 64.1283 108.804 66.9357 109.69L71.4745 111.019V113.123H38.9214L38.9237 113.125Z" fill="#0E1530"/>
<path d="M97.4214 114.675C93.0643 114.675 88.9693 113.438 85.1318 110.966C81.292 108.494 78.1926 104.562 75.8313 99.1726C73.4676 93.7852 72.2881 86.7353 72.2881 78.0231C72.2881 69.3108 73.4676 62.1529 75.8313 56.7633C78.1926 51.3759 81.292 47.4256 85.1318 44.9147C88.9693 42.4061 93.0666 41.1506 97.4214 41.1506C101.776 41.1506 105.874 42.4061 109.711 44.9147C113.548 47.4256 116.648 51.3759 119.012 56.7633C121.373 62.1529 122.555 69.2396 122.555 78.0231C122.555 86.8066 121.373 93.7852 119.012 99.1726C116.648 104.562 113.548 108.492 109.711 110.966C105.871 113.438 101.776 114.675 97.4214 114.675ZM97.4214 111.575C99.339 111.575 100.965 111.097 102.294 110.136C103.623 109.177 104.71 107.496 105.561 105.098C106.409 102.7 107.037 99.3036 107.444 94.9119C107.849 90.5201 108.053 84.8913 108.053 78.0254C108.053 71.1595 107.849 65.4203 107.444 61.0286C107.037 56.6368 106.409 53.2222 105.561 50.7872C104.712 48.3522 103.623 46.653 102.294 45.6942C100.965 44.7353 99.3413 44.2548 97.4214 44.2548C95.5015 44.2548 93.9702 44.7169 92.6044 45.639C91.2387 46.5633 90.1488 48.2419 89.3372 50.6769C88.5232 53.1119 87.9139 56.5448 87.5093 60.9757C87.1023 65.4042 86.8999 71.0905 86.8999 78.0277C86.8999 84.9648 87.1023 90.5224 87.5093 94.9142C87.9139 99.3059 88.5232 102.72 89.3372 105.155C90.1488 107.59 91.2364 109.271 92.6044 110.193C93.9702 111.118 95.5751 111.578 97.4214 111.578V111.575Z" fill="#0E1530"/>
<path d="M104.043 135.739C103.289 135.739 102.589 135.677 101.945 135.553C101.314 135.43 100.649 135.265 99.949 135.06C99.4963 134.923 99.1671 134.847 98.9614 134.833L99.1465 130.986H101.06L101.574 133.619C101.725 133.798 102 133.955 102.397 134.093C102.809 134.23 103.296 134.298 103.858 134.298C104.695 134.298 105.319 134.113 105.731 133.743C106.156 133.373 106.368 132.865 106.368 132.22C106.368 131.768 106.231 131.377 105.957 131.048C105.696 130.705 105.326 130.396 104.846 130.122C104.379 129.834 103.735 129.504 102.912 129.134C101.828 128.64 100.909 128.016 100.155 127.262C99.414 126.494 99.0437 125.485 99.0437 124.237C99.0437 123.469 99.2426 122.769 99.6403 122.138C100.038 121.507 100.642 121 101.451 120.616C102.26 120.232 103.268 120.04 104.476 120.04C105.203 120.04 105.833 120.088 106.368 120.184C106.917 120.28 107.5 120.41 108.117 120.575C108.447 120.684 108.7 120.746 108.879 120.76L108.755 124.422H106.883L106.41 121.892C106.314 121.768 106.094 121.658 105.751 121.562C105.422 121.453 105.052 121.398 104.64 121.398C103.886 121.398 103.316 121.576 102.932 121.933C102.562 122.289 102.377 122.749 102.377 123.311C102.377 123.805 102.535 124.237 102.85 124.607C103.166 124.978 103.543 125.293 103.982 125.554C104.434 125.801 105.12 126.151 106.039 126.603C106.766 126.96 107.397 127.323 107.932 127.694C108.481 128.05 108.947 128.517 109.331 129.093C109.715 129.669 109.907 130.341 109.907 131.109C109.907 131.864 109.722 132.591 109.352 133.29C108.995 133.99 108.378 134.573 107.5 135.039C106.622 135.505 105.47 135.739 104.043 135.739Z" fill="#0E1530"/>
<path d="M90.146 135.739C87.8416 135.739 86.1338 135.046 85.0228 133.661C83.9117 132.261 83.3562 130.341 83.3562 127.9C83.3562 126.322 83.6442 124.944 84.2203 123.764C84.8102 122.571 85.6332 121.652 86.6893 121.007C87.7455 120.362 88.9801 120.04 90.3929 120.04C92.7522 120.04 94.4873 120.698 95.5984 122.015C96.7232 123.318 97.2856 125.184 97.2856 127.611C97.2856 129.216 96.9907 130.636 96.4008 131.871C95.811 133.091 94.9743 134.045 93.8907 134.73C92.8208 135.403 91.5725 135.739 90.146 135.739ZM90.3312 121.398C89.3435 121.398 88.5754 121.94 88.0267 123.023C87.4918 124.107 87.2243 125.725 87.2243 127.879C87.2243 130.074 87.4918 131.706 88.0267 132.776C88.5617 133.832 89.323 134.36 90.3106 134.36C91.2845 134.36 92.0389 133.784 92.5739 132.632C93.1225 131.466 93.3969 129.799 93.3969 127.632C93.3969 125.437 93.1362 123.853 92.615 122.879C92.0938 121.892 91.3325 121.398 90.3312 121.398Z" fill="#0E1530"/>
<path d="M68.5691 121.933L66.9642 121.665V120.225H72.1286L77.8074 128.99L78.9596 131.459V121.933L77.2107 121.665V120.225H82.4779V121.665L80.9142 121.933V135.512H77.8897L71.8611 126.109L70.5032 123.393V133.928L72.6841 134.154V135.512H66.9642V134.154L68.5691 133.928V121.933Z" fill="#0E1530"/>
<path d="M57.0874 120.163H60.791L65.3998 133.948L66.5314 134.154V135.512H60.0503V134.154L61.5111 133.948L60.8115 131.479H55.8941L55.1945 133.969L56.7994 134.154V135.512H51.3264L51.3058 134.154L52.4992 133.928L57.0874 120.163ZM58.61 123.743L58.3014 122.303L57.9722 123.763L56.3056 129.895H60.3795L58.61 123.743Z" fill="#0E1530"/>
<path d="M80.4617 150.311C78.8839 150.311 77.6043 149.033 77.6043 147.454C77.6043 145.874 78.8839 144.598 80.4617 144.598C82.0396 144.598 83.3174 145.876 83.3174 147.454C83.3174 149.031 82.0379 150.311 80.4617 150.311Z" fill="#B6843D"/>
<path d="M80.4617 149.866C79.1304 149.866 78.0509 148.786 78.0509 147.455C78.0509 146.124 79.1304 145.044 80.4617 145.044C81.793 145.044 82.8725 146.124 82.8725 147.455C82.8725 148.786 81.793 149.866 80.4617 149.866Z" fill="#0E1530"/>
<path d="M80.4617 32.5752C78.8839 32.5752 77.6043 31.2973 77.6043 29.7178C77.6043 28.1382 78.8839 26.8621 80.4617 26.8621C82.0396 26.8621 83.3174 28.1399 83.3174 29.7178C83.3174 31.2956 82.0379 32.5752 80.4617 32.5752Z" fill="url(#paint2_linear_492_391)"/>
<path d="M80.4618 32.1284C79.1305 32.1284 78.051 31.0489 78.051 29.7177C78.051 28.3864 79.1305 27.3069 80.4618 27.3069C81.7931 27.3069 82.8726 28.3864 82.8726 29.7177C82.8726 31.0489 81.7931 32.1284 80.4618 32.1284Z" fill="#0E1530"/>
<path d="M80.4623 1.88113C81.2854 1.88113 82.1109 2.07658 82.8627 2.46747L96.5618 9.4805C107.649 15.1553 119.869 18.0732 132.203 18.0732C136.489 18.0732 140.791 17.7214 145.06 17.0086L155.637 15.245C155.784 15.2197 155.929 15.2082 156.071 15.2082C157.481 15.2082 158.674 16.3533 158.674 17.8157V106.352C158.674 126.101 147.516 144.158 129.851 152.99L82.7937 176.519C82.0603 176.887 81.2601 177.069 80.4623 177.069C79.6644 177.069 78.8643 176.885 78.1308 176.519L31.074 152.99C13.4087 144.158 2.25032 126.101 2.25032 106.352V17.818C2.25032 16.3556 3.44364 15.2105 4.85309 15.2105C4.99565 15.2105 5.1405 15.222 5.28766 15.2473L15.8643 17.0109C20.1363 17.7237 24.4337 18.0755 28.7218 18.0755C41.0528 18.0755 53.278 15.1576 64.3628 9.48279L78.0618 2.46976C78.8137 2.07887 79.6391 1.88343 80.4623 1.88343M80.4623 0.0439453C79.3379 0.0439453 78.2136 0.317567 77.2157 0.834922L63.5236 7.84336C52.8021 13.3319 40.7654 16.2337 28.7195 16.2337C24.5256 16.2337 20.3019 15.8842 16.1655 15.1944L5.58886 13.4308C5.34514 13.3894 5.09681 13.3687 4.85309 13.3687C2.40437 13.3687 0.410904 15.3645 0.410904 17.8157V106.352C0.410904 116.384 3.19762 126.198 8.47214 134.733C13.7467 143.268 21.2768 150.15 30.2508 154.636L77.3077 178.166C78.2826 178.653 79.3724 178.911 80.4623 178.911C81.5521 178.911 82.642 178.653 83.6169 178.166L130.674 154.636C139.648 150.15 147.178 143.268 152.452 134.733C157.727 126.198 160.514 116.384 160.514 106.352V17.818C160.514 15.3668 158.523 13.371 156.074 13.371C155.828 13.371 155.582 13.3917 155.338 13.4331L144.761 15.1967C140.625 15.8865 136.399 16.236 132.207 16.236C120.161 16.236 108.127 13.3342 97.4033 7.84566L83.7043 0.832624C82.7133 0.319868 81.5912 0.0462434 80.4669 0.0462434L80.4623 0.0439453Z" fill="url(#paint3_linear_492_391)"/>
<mask id="mask0_492_391" style="mask-type:luminance" maskUnits="userSpaceOnUse" x="2" y="1" width="157" height="177">
<path d="M82.7935 176.519L129.85 152.99C147.516 144.158 158.674 126.101 158.674 106.352V17.8178C158.674 16.206 157.228 14.9804 155.639 15.2471L145.062 17.0107C128.508 19.77 111.505 17.1303 96.5639 9.48265L82.8648 2.46962C81.3588 1.69014 79.57 1.69014 78.0639 2.46962L64.3649 9.48265C49.4242 17.1303 32.4211 19.77 15.8664 17.0107L5.28977 15.2471C3.70097 14.9827 2.25473 16.2083 2.25473 17.8178V106.354C2.25473 126.104 13.4131 144.16 31.0784 152.992L78.1352 176.522C79.6022 177.255 81.3312 177.255 82.7981 176.522L82.7935 176.519Z" fill="white"/>
</mask>
<g mask="url(#mask0_492_391)">
<path style="mix-blend-mode:overlay" d="M-29.8497 66.5869C-26.3226 47.4907 -17.544 30.241 -5.02448 16.4196L140.069 161.52C126.245 174.038 108.996 182.817 89.9032 186.346L-29.8497 66.5869ZM52.3699 -15.6357C42.0784 -13.7342 32.3226 -10.3081 23.3531 -5.58526L162.07 133.139C166.793 124.167 170.221 114.416 172.123 104.122L52.3699 -15.6357Z" fill="url(#paint4_linear_492_391)"/>
</g>
</g>
<defs>
<linearGradient id="paint0_linear_492_391" x1="13.5533" y1="5.43349" x2="147.376" y2="139.251" gradientUnits="userSpaceOnUse">
<stop stop-color="#DEAC50"/>
<stop offset="0.23" stop-color="#F8FCA3"/>
<stop offset="0.45" stop-color="#DEAC50"/>
<stop offset="1" stop-color="#5C2911"/>
</linearGradient>
<linearGradient id="paint1_linear_492_391" x1="131.225" y1="26.5508" x2="29.695" y2="128.077" gradientUnits="userSpaceOnUse">
<stop stop-color="#D6A344"/>
<stop offset="0.23" stop-color="#F8FCA3"/>
<stop offset="0.27" stop-color="#E9D983"/>
<stop offset="0.32" stop-color="#DEBC6A"/>
<stop offset="0.36" stop-color="#D5A857"/>
<stop offset="0.4" stop-color="#D09C4C"/>
<stop offset="0.45" stop-color="#CF9849"/>
<stop offset="0.5" stop-color="#D19E4E"/>
<stop offset="0.57" stop-color="#D8AF5E"/>
<stop offset="0.65" stop-color="#E4CB77"/>
<stop offset="0.73" stop-color="#F4F39B"/>
<stop offset="0.75" stop-color="#F8FCA3"/>
<stop offset="1" stop-color="#5C2911"/>
</linearGradient>
<linearGradient id="paint2_linear_492_391" x1="84.0107" y1="32.0113" x2="76.0885" y2="26.8931" gradientUnits="userSpaceOnUse">
<stop stop-color="#D6A344"/>
<stop offset="0.23" stop-color="#F8FCA3"/>
<stop offset="0.27" stop-color="#E9D983"/>
<stop offset="0.32" stop-color="#DEBC6A"/>
<stop offset="0.36" stop-color="#D5A857"/>
<stop offset="0.4" stop-color="#D09C4C"/>
<stop offset="0.45" stop-color="#CF9849"/>
<stop offset="0.5" stop-color="#D19E4E"/>
<stop offset="0.57" stop-color="#D8AF5E"/>
<stop offset="0.65" stop-color="#E4CB77"/>
<stop offset="0.73" stop-color="#F4F39B"/>
<stop offset="0.75" stop-color="#F8FCA3"/>
<stop offset="1" stop-color="#5C2911"/>
</linearGradient>
<linearGradient id="paint3_linear_492_391" x1="12.2544" y1="140.558" x2="148.677" y2="4.13952" gradientUnits="userSpaceOnUse">
<stop stop-color="#D6A344"/>
<stop offset="0.23" stop-color="#F8FCA3"/>
<stop offset="0.27" stop-color="#E9D983"/>
<stop offset="0.32" stop-color="#DEBC6A"/>
<stop offset="0.36" stop-color="#D5A857"/>
<stop offset="0.4" stop-color="#D09C4C"/>
<stop offset="0.45" stop-color="#CF9849"/>
<stop offset="0.5" stop-color="#D19E4E"/>
<stop offset="0.57" stop-color="#D8AF5E"/>
<stop offset="0.65" stop-color="#E4CB77"/>
<stop offset="0.73" stop-color="#F4F39B"/>
<stop offset="0.75" stop-color="#F8FCA3"/>
<stop offset="1" stop-color="#5C2911"/>
</linearGradient>
<linearGradient id="paint4_linear_492_391" x1="13.549" y1="20.9424" x2="144.781" y2="167.712" gradientUnits="userSpaceOnUse">
<stop stop-color="white" stop-opacity="0.3"/>
<stop offset="1" stop-color="white" stop-opacity="0.1"/>
</linearGradient>
<clipPath id="clip0_492_391">
<rect width="160.029" height="178.89" fill="white" transform="translate(0.500732)"/>
</clipPath>
</defs>
</svg>
