<svg width="15" height="16" viewBox="0 0 15 16" fill="none" xmlns="http://www.w3.org/2000/svg">
<g id="Symbol">
<path id="Vector" d="M7.72697 15.8556L12.0016 13.7192C13.606 12.9174 14.6197 11.2782 14.6197 9.48488V1.4466C14.6197 1.30069 14.4886 1.18903 14.3441 1.21285L13.3833 1.3729C11.8794 1.62378 10.3346 1.38407 8.97755 0.689525L7.73292 0.0530401C7.59587 -0.01768 7.4335 -0.01768 7.2972 0.0530401L6.05258 0.689525C4.69548 1.38407 3.15069 1.62378 1.64686 1.3729L0.686017 1.21285C0.541519 1.18903 0.410431 1.29995 0.410431 1.4466V9.48488C0.410431 11.2782 1.42415 12.9174 3.02853 13.7192L7.30315 15.8556C7.43648 15.9226 7.59364 15.9226 7.72697 15.8556Z" fill="#0086FF"/>
<path id="Vector_2" d="M7.51466 15.9053C7.58691 15.9053 7.6599 15.889 7.72619 15.8555L12.0008 13.719C13.6052 12.9172 14.6189 11.278 14.6189 9.48469V1.44641C14.6189 1.30051 14.4878 1.18884 14.3433 1.21266L13.3825 1.37272C11.8787 1.62359 10.3339 1.38388 8.97678 0.689336L7.73215 0.0528511C7.66362 0.0171188 7.58914 0 7.51392 0V15.9053H7.51466Z" fill="#0072D9"/>
</g>
</svg>
